<svg height="742.0000123977661" version="1.1" width="1190.6500263214111" xmlns="http://www.w3.org/2000/svg" xmlns:xlink="http://www.w3.org/1999/xlink" style="overflow: hidden; position: relative; left: -0.900024px;" viewBox="0 0 1190.6500263214111 742.0000123977661" preserveAspectRatio="xMidYMid meet">
org/1999/xlink" style="overflow: hidden; position: relative; left: -0.900024px;" viewBox="0 0 1701.3666429519653 740.5999908447266" preserveAspectRatio="xMidYMid meet"&gt;
 <style>
    :root {
      --fill: #fff;
      --stroke: #000;
    }
    @media (prefers-color-scheme: dark) {
      :root {
        --stroke: #fff;
        --fill: #000;
      }
    }
  </style>
  <desc>Created with Raphaël 2.3.0</desc><defs><path stroke-linecap="round" d="M5,0 0,2.5 5,5z" id="raphael-marker-block"/><marker id="raphael-marker-endblock33-objv8fff" markerHeight="3" markerWidth="3" orient="auto" refX="1.5" refY="1.5"><use xlink:href="#raphael-marker-block" transform="rotate(180 1.5 1.5) scale(0.6,0.6)" stroke-width="1.6667" stroke="none" style="fill:var(--stroke);"/></marker><marker id="raphael-marker-endblock33-objdgbtd" markerHeight="3" markerWidth="3" orient="auto" refX="1.5" refY="1.5"><use xlink:href="#raphael-marker-block" transform="rotate(180 1.5 1.5) scale(0.6,0.6)" stroke-width="1.6667" stroke="none" style="fill:var(--stroke);"/></marker><marker id="raphael-marker-endblock33-objbp7jx" markerHeight="3" markerWidth="3" orient="auto" refX="1.5" refY="1.5"><use xlink:href="#raphael-marker-block" transform="rotate(180 1.5 1.5) scale(0.6,0.6)" stroke-width="1.6667" stroke="none" style="fill:var(--stroke);"/></marker><marker id="raphael-marker-endblock33-obj8zymt" markerHeight="3" markerWidth="3" orient="auto" refX="1.5" refY="1.5"><use xlink:href="#raphael-marker-block" transform="rotate(180 1.5 1.5) scale(0.6,0.6)" stroke-width="1.6667" stroke="none" style="fill:var(--stroke);"/></marker><marker id="raphael-marker-endblock33-obj5gurd" markerHeight="3" markerWidth="3" orient="auto" refX="1.5" refY="1.5"><use xlink:href="#raphael-marker-block" transform="rotate(180 1.5 1.5) scale(0.6,0.6)" stroke-width="1.6667" stroke="none" style="fill:var(--stroke);"/></marker><marker id="raphael-marker-endblock33-obj90mam" markerHeight="3" markerWidth="3" orient="auto" refX="1.5" refY="1.5"><use xlink:href="#raphael-marker-block" transform="rotate(180 1.5 1.5) scale(0.6,0.6)" stroke-width="1.6667" stroke="none" style="fill:var(--stroke);"/></marker><marker id="raphael-marker-endblock33-objzd8mk" markerHeight="3" markerWidth="3" orient="auto" refX="1.5" refY="1.5"><use xlink:href="#raphael-marker-block" transform="rotate(180 1.5 1.5) scale(0.6,0.6)" stroke-width="1.6667" stroke="none" style="fill:var(--stroke);"/></marker><marker id="raphael-marker-endblock33-objkk7ts" markerHeight="3" markerWidth="3" orient="auto" refX="1.5" refY="1.5"><use xlink:href="#raphael-marker-block" transform="rotate(180 1.5 1.5) scale(0.6,0.6)" stroke-width="1.6667" stroke="none" style="fill:var(--stroke);"/></marker><marker id="raphael-marker-endblock33-objxt2rw" markerHeight="3" markerWidth="3" orient="auto" refX="1.5" refY="1.5"><use xlink:href="#raphael-marker-block" transform="rotate(180 1.5 1.5) scale(0.6,0.6)" stroke-width="1.6667" stroke="none" style="fill:var(--stroke);"/></marker><marker id="raphael-marker-endblock33-objkftq5" markerHeight="3" markerWidth="3" orient="auto" refX="1.5" refY="1.5"><use xlink:href="#raphael-marker-block" transform="rotate(180 1.5 1.5) scale(0.6,0.6)" stroke-width="1.6667" stroke="none" style="fill:var(--stroke);"/></marker><marker id="raphael-marker-endblock33-obj0vhn6" markerHeight="3" markerWidth="3" orient="auto" refX="1.5" refY="1.5"><use xlink:href="#raphael-marker-block" transform="rotate(180 1.5 1.5) scale(0.6,0.6)" stroke-width="1.6667" stroke="none" style="fill:var(--stroke);"/></marker></defs><rect x="0" y="0" width="51.566667556762695" height="36" rx="20" ry="20" style="stroke:var(--stroke); fill:var(--fill);" stroke-width="3" class="flowchart" id="peer" transform="matrix(1,0,0,1,134.9292,65.3563)"/><text style="text-anchor: start; font-family: &quot;Arial&quot;; font-size: 14px; fill:var(--stroke);" x="10" y="18" text-anchor="start" font-family="&quot;Arial&quot;" font-size="14px" stroke="none" id="peert" class="flowchartt" transform="matrix(1,0,0,1,134.9292,65.3563)" stroke-width="1"><tspan dy="5">Peer</tspan></text><path style="stroke:var(--stroke); fill:var(--fill);" d="M50.218749046325684,25.109374523162842L0,50.218749046325684L100.43749809265137,100.43749809265137L200.87499618530273,50.218749046325684L100.43749809265137,0L0,50.218749046325684" stroke-width="3" id="ttl_name" class="flowchart" transform="matrix(1,0,0,1,60.275,184.4938)"/><text style="text-anchor: start; font-family: &quot;Arial&quot;; font-size: 14px; fill:var(--stroke);" x="55.218749046325684" y="50.218749046325684" text-anchor="start" font-family="&quot;Arial&quot;" font-size="14px" stroke="none" id="ttl_namet" class="flowchartt" transform="matrix(1,0,0,1,60.275,184.4938)" stroke-width="1"><tspan dy="4.999999046325684">a.com in cache?</tspan></text><rect x="0" y="0" width="136.36666870117188" height="36" rx="0" ry="0" style="stroke:var(--stroke); fill:var(--fill);" stroke-width="3" class="flowchart" id="resolve_cid" transform="matrix(1,0,0,1,92.5292,400.2875)"/><text style="text-anchor: start; font-family: &quot;Arial&quot;; font-size: 14px; fill:var(--stroke);" x="10" y="18" text-anchor="start" font-family="&quot;Arial&quot;" font-size="14px" stroke="none" id="resolve_cidt" class="flowchartt" transform="matrix(1,0,0,1,92.5292,400.2875)" stroke-width="1"><tspan dy="5">Reslove QmName</tspan></text><rect x="0" y="0" width="108.36666870117188" height="36" rx="20" ry="20" style="stroke:var(--stroke); fill:var(--fill);" stroke-width="3" class="flowchart" id="keeper" transform="matrix(1,0,0,1,106.5292,551.6438)"/><text style="text-anchor: start; font-family: &quot;Arial&quot;; font-size: 14px; fill:var(--stroke);" x="10" y="18" text-anchor="start" font-family="&quot;Arial&quot;" font-size="14px" stroke="none" id="keepert" class="flowchartt" transform="matrix(1,0,0,1,106.5292,551.6438)" stroke-width="1"><tspan dy="5">Name Keeper</tspan></text><path style="stroke:var(--stroke); fill:var(--fill);" d="M10,18L0,36L97.23333358764648,36L117.23333358764648,0L20,0L10,18" stroke-width="3" id="cid" class="flowchart" transform="matrix(1,0,0,1,102.0958,703)"/><text style="text-anchor: start; font-family: &quot;Arial&quot;; font-size: 14px; fill:var(--stroke);" x="30" y="18" text-anchor="start" font-family="&quot;Arial&quot;" font-size="14px" stroke="none" id="cidt" class="flowchartt" transform="matrix(1,0,0,1,102.0958,703)" stroke-width="1"><tspan dy="5">QmV321</tspan></text><rect x="0" y="0" width="105.25" height="36" rx="0" ry="0" style="stroke:var(--stroke); fill:var(--fill);" stroke-width="3" class="flowchart" id="lookup" transform="matrix(1,0,0,1,419.2375,216.7125)"/><text style="text-anchor: start; font-family: &quot;Arial&quot;; font-size: 14px; fill:var(--stroke);" x="10" y="18" text-anchor="start" font-family="&quot;Arial&quot;" font-size="14px" stroke="none" id="lookupt" class="flowchartt" transform="matrix(1,0,0,1,419.2375,216.7125)" stroke-width="1"><tspan dy="5">lookup a.com</tspan></text><path style="stroke:var(--stroke); fill:var(--fill);" d="M77.35625267028809,38.67812633514404L0,77.35625267028809L154.71250534057617,154.71250534057617L309.42501068115234,77.35625267028809L154.71250534057617,0L0,77.35625267028809" stroke-width="3" id="has_keeper" class="flowchart" transform="matrix(1,0,0,1,580.4875,157.3563)"/><text style="text-anchor: start; font-family: &quot;Arial&quot;; font-size: 14px; fill:var(--stroke);" x="82.35625267028809" y="77.35625267028809" text-anchor="start" font-family="&quot;Arial&quot;" font-size="14px" stroke="none" id="has_keepert" class="flowchartt" transform="matrix(1,0,0,1,580.4875,157.3563)" stroke-width="1"><tspan dy="4.999998092651367">DNSLink has keepr address</tspan></text><rect x="0" y="0" width="121.5999984741211" height="36" rx="0" ry="0" style="stroke:var(--stroke); fill:var(--fill);" stroke-width="3" class="flowchart" id="resolve_keeper" transform="matrix(1,0,0,1,1039.825,216.7125)"/><text style="text-anchor: start; font-family: &quot;Arial&quot;; font-size: 14px; fill:var(--stroke);" x="10" y="18" text-anchor="start" font-family="&quot;Arial&quot;" font-size="14px" stroke="none" id="resolve_keepert" class="flowchartt" transform="matrix(1,0,0,1,1039.825,216.7125)" stroke-width="1"><tspan dy="5">Reslove Keeper</tspan></text><rect x="0" y="0" width="105.25" height="36" rx="20" ry="20" style="stroke:var(--stroke); fill:var(--fill);" stroke-width="3" class="flowchart" id="router" transform="matrix(1,0,0,1,1048,368.0688)"/><text style="text-anchor: start; font-family: &quot;Arial&quot;; font-size: 14px; fill:var(--stroke);" x="10" y="18" text-anchor="start" font-family="&quot;Arial&quot;" font-size="14px" stroke="none" id="routert" class="flowchartt" transform="matrix(1,0,0,1,1048,368.0688)" stroke-width="1"><tspan dy="5">Name Router</tspan></text><path style="stroke:var(--stroke); fill:var(--fill);" d="M10,18L0,36L154.0500030517578,36L174.0500030517578,0L20,0L10,18" stroke-width="3" id="keeper_resolved" class="flowchart" transform="matrix(1,0,0,1,1013.6,519.425)"/><text style="text-anchor: start; font-family: &quot;Arial&quot;; font-size: 14px; fill:var(--stroke);" x="30" y="18" text-anchor="start" font-family="&quot;Arial&quot;" font-size="14px" stroke="none" id="keeper_resolvedt" class="flowchartt" transform="matrix(1,0,0,1,1013.6,519.425)" stroke-width="1"><tspan dy="5">Resolved address</tspan></text><path style="stroke:var(--stroke);" fill="none" d="M160.71250534057617,101.35625267028809C160.71250534057617,101.35625267028809,160.71250534057617,162.6856580615838,160.71250534057617,179.99444532533818" stroke-width="3" marker-end="url(#raphael-marker-endblock33-objv8fff)"/><path style="stroke:var(--stroke);" fill="none" d="M160.71250534057617,284.93125438690186C160.71250534057617,284.93125438690186,160.71250534057617,374.48732040145603,160.71250534057617,395.78312320862784" stroke-width="3" marker-end="url(#raphael-marker-endblock33-objdgbtd)"/><text style="text-anchor: start; font-family: &quot;Arial&quot;; font-size: 14px; fill:var(--stroke);" x="165.71250534057617" y="294.93125438690186" text-anchor="start" font-family="&quot;Arial&quot;" font-size="14px" stroke="none" stroke-width="1"><tspan dy="5.0000104904174805">yes</tspan></text><path style="stroke:var(--stroke);" fill="none" d="M261.15000343322754,234.71250534057617C261.15000343322754,234.71250534057617,388.96478672204535,234.71250534057617,414.7399358911282,234.71250534057617" stroke-width="3" marker-end="url(#raphael-marker-endblock33-objbp7jx)"/><text style="text-anchor: start; font-family: &quot;Arial&quot;; font-size: 14px; fill:var(--stroke);" x="266.15000343322754" y="224.71250534057617" text-anchor="start" font-family="&quot;Arial&quot;" font-size="14px" stroke="none" stroke-width="1"><tspan dy="4.999996185302734">no</tspan></text><path style="stroke:var(--stroke);" fill="none" d="M160.71250534057617,436.28750705718994C160.71250534057617,436.28750705718994,160.71250534057617,525.8435730717441,160.71250534057617,547.1393758789159" stroke-width="3" marker-end="url(#raphael-marker-endblock33-obj8zymt)"/><path style="stroke:var(--stroke);" fill="none" d="M160.71250534057617,587.643759727478C160.71250534057617,587.643759727478,160.71250534057617,677.1998257420322,160.71250534057617,698.4956285492041" stroke-width="3" marker-end="url(#raphael-marker-endblock33-obj5gurd)"/><path style="stroke:var(--stroke);" fill="none" d="M524.4875087738037,234.71250534057617C524.4875087738037,234.71250534057617,562.6882796287537,234.71250534057617,575.9876690914389,234.71250534057617" stroke-width="3" marker-end="url(#raphael-marker-endblock33-obj90mam)"/><path style="stroke:var(--stroke);" fill="none" d="M735.2000141143799,312.06875801086426C735.2000141143799,312.06875801086426,735.2000141143799,365.28750705718994,735.2000141143799,365.28750705718994C735.2000141143799,365.28750705718994,160.71250534057617,365.28750705718994,160.71250534057617,365.28750705718994C160.71250534057617,365.28750705718994,160.71250534057617,386.3305788040161,160.71250534057617,395.7835211902857" stroke-width="3" marker-end="url(#raphael-marker-endblock33-objzd8mk)"/><text style="text-anchor: start; font-family: &quot;Arial&quot;; font-size: 14px; fill:var(--stroke);" x="740.2000141143799" y="322.06875801086426" text-anchor="start" font-family="&quot;Arial&quot;" font-size="14px" stroke="none" stroke-width="1"><tspan dy="5.000001907348633">yes</tspan></text><path style="stroke:var(--stroke);" fill="none" d="M889.912519454956,234.71250534057617C889.912519454956,234.71250534057617,1010.3292239406674,234.71250534057617,1035.318042010212,234.71250534057617" stroke-width="3" marker-end="url(#raphael-marker-endblock33-objkk7ts)"/><text style="text-anchor: start; font-family: &quot;Arial&quot;; font-size: 14px; fill:var(--stroke);" x="894.912519454956" y="224.71250534057617" text-anchor="start" font-family="&quot;Arial&quot;" font-size="14px" stroke="none" stroke-width="1"><tspan dy="4.999996185302734">no</tspan></text><path style="stroke:var(--stroke);" fill="none" d="M1100.6250247955322,252.71250534057617C1100.6250247955322,252.71250534057617,1100.6250247955322,342.26857135513035,1100.6250247955322,363.56437416230216" stroke-width="3" marker-end="url(#raphael-marker-endblock33-objxt2rw)"/><path style="stroke:var(--stroke);" fill="none" d="M1100.6250247955322,404.06875801086426C1100.6250247955322,404.06875801086426,1100.6250247955322,493.62482402541843,1100.6250247955322,514.9206268325903" stroke-width="3" marker-end="url(#raphael-marker-endblock33-objkftq5)"/><path style="stroke:var(--stroke);" fill="none" d="M1023.6000232696533,537.4250106811523C1023.6000232696533,537.4250106811523,592.1562643051147,537.4250106811523,592.1562643051147,537.4250106811523C592.1562643051147,537.4250106811523,592.1562643051147,371.28750705718994,592.1562643051147,371.28750705718994C592.1562643051147,371.28750705718994,604.1562643051147,365.28750705718994,592.1562643051147,359.28750705718994C592.1562643051147,359.28750705718994,592.1562643051147,355.28750705718994,592.1562643051147,355.28750705718994C592.1562643051147,355.28750705718994,160.71250534057617,355.28750705718994,160.71250534057617,355.28750705718994C160.71250534057617,355.28750705718994,160.71250534057617,384.3906443119049,160.71250534057617,395.78747833450325" stroke-width="3" marker-end="url(#raphael-marker-endblock33-obj0vhn6)"/></svg>
