<svg height="740.5999908447266" version="1.1" width="1701.3666429519653" xmlns="http://www.w3.org/2000/svg" xmlns:xlink="http://www.w3.org/1999/xlink" style="overflow: hidden; position: relative; left: -0.900024px;" viewBox="0 0 1701.3666429519653 740.5999908447266" preserveAspectRatio="xMidYMid meet">
 <style>
    :root {
      --fill: #fff;
      --stroke: #000;
    }
    @media (prefers-color-scheme: dark) {
      :root {
        --stroke: #fff;
        --fill: #000;
      }
    }
  </style>
<desc>Created with Raphaël 2.3.0</desc><defs><path stroke-linecap="round" d="M5,0 0,2.5 5,5z" id="raphael-marker-block"/><marker id="raphael-marker-endblock33-objctu6m" markerHeight="3" markerWidth="3" orient="auto" refX="1.5" refY="1.5"><use xlink:href="#raphael-marker-block" transform="rotate(180 1.5 1.5) scale(0.6,0.6)" stroke-width="1.6667" stroke="none" style="fill:var(--stroke);"/></marker><marker id="raphael-marker-endblock33-objx2zel" markerHeight="3" markerWidth="3" orient="auto" refX="1.5" refY="1.5"><use xlink:href="#raphael-marker-block" transform="rotate(180 1.5 1.5) scale(0.6,0.6)" stroke-width="1.6667" stroke="none" style="fill:var(--stroke);"/></marker><marker id="raphael-marker-endblock33-objvestp" markerHeight="3" markerWidth="3" orient="auto" refX="1.5" refY="1.5"><use xlink:href="#raphael-marker-block" transform="rotate(180 1.5 1.5) scale(0.6,0.6)" stroke-width="1.6667" stroke="none" style="fill:var(--stroke);"/></marker><marker id="raphael-marker-endblock33-objdwfj4" markerHeight="3" markerWidth="3" orient="auto" refX="1.5" refY="1.5"><use xlink:href="#raphael-marker-block" transform="rotate(180 1.5 1.5) scale(0.6,0.6)" stroke-width="1.6667" stroke="none" style="fill:var(--stroke);"/></marker><marker id="raphael-marker-endblock33-objq28y3" markerHeight="3" markerWidth="3" orient="auto" refX="1.5" refY="1.5"><use xlink:href="#raphael-marker-block" transform="rotate(180 1.5 1.5) scale(0.6,0.6)" stroke-width="1.6667" stroke="none" style="fill:var(--stroke);"/></marker><marker id="raphael-marker-endblock33-objmmx4k" markerHeight="3" markerWidth="3" orient="auto" refX="1.5" refY="1.5"><use xlink:href="#raphael-marker-block" transform="rotate(180 1.5 1.5) scale(0.6,0.6)" stroke-width="1.6667" stroke="none" style="fill:var(--stroke);"/></marker><marker id="raphael-marker-endblock33-objipaxj" markerHeight="3" markerWidth="3" orient="auto" refX="1.5" refY="1.5"><use xlink:href="#raphael-marker-block" transform="rotate(180 1.5 1.5) scale(0.6,0.6)" stroke-width="1.6667" stroke="none" style="fill:var(--stroke);"/></marker><marker id="raphael-marker-endblock33-objyr3pz" markerHeight="3" markerWidth="3" orient="auto" refX="1.5" refY="1.5"><use xlink:href="#raphael-marker-block" transform="rotate(180 1.5 1.5) scale(0.6,0.6)" stroke-width="1.6667" stroke="none" style="fill:var(--stroke);"/></marker><marker id="raphael-marker-endblock33-objiib08" markerHeight="3" markerWidth="3" orient="auto" refX="1.5" refY="1.5"><use xlink:href="#raphael-marker-block" transform="rotate(180 1.5 1.5) scale(0.6,0.6)" stroke-width="1.6667" stroke="none" style="fill:var(--stroke);"/></marker><marker id="raphael-marker-endblock33-objdpfcw" markerHeight="3" markerWidth="3" orient="auto" refX="1.5" refY="1.5"><use xlink:href="#raphael-marker-block" transform="rotate(180 1.5 1.5) scale(0.6,0.6)" stroke-width="1.6667" stroke="none" style="fill:var(--stroke);"/></marker><marker id="raphael-marker-endblock33-objfwwzg" markerHeight="3" markerWidth="3" orient="auto" refX="1.5" refY="1.5"><use xlink:href="#raphael-marker-block" transform="rotate(180 1.5 1.5) scale(0.6,0.6)" stroke-width="1.6667" stroke="none" style="fill:var(--stroke);"/></marker><marker id="raphael-marker-endblock33-objrfl9b" markerHeight="3" markerWidth="3" orient="auto" refX="1.5" refY="1.5"><use xlink:href="#raphael-marker-block" transform="rotate(180 1.5 1.5) scale(0.6,0.6)" stroke-width="1.6667" stroke="none" style="fill:var(--stroke);"/></marker><marker id="raphael-marker-endblock33-obj96rr9" markerHeight="3" markerWidth="3" orient="auto" refX="1.5" refY="1.5"><use xlink:href="#raphael-marker-block" transform="rotate(180 1.5 1.5) scale(0.6,0.6)" stroke-width="1.6667" stroke="none" style="fill:var(--stroke);"/></marker><marker id="raphael-marker-endblock33-objvbx2y" markerHeight="3" markerWidth="3" orient="auto" refX="1.5" refY="1.5"><use xlink:href="#raphael-marker-block" transform="rotate(180 1.5 1.5) scale(0.6,0.6)" stroke-width="1.6667" stroke="none" style="fill:var(--stroke);"/></marker></defs><rect x="0" y="0" width="74.45000076293945" height="39" rx="20" ry="20" style="fill:var(--fill); stroke:var(--stroke);" stroke-width="3" class="flowchart" id="peer" transform="matrix(1,0,0,1,112.975,58.6)"/><text style="text-anchor: start; font-family: &quot;Arial&quot;; font-size: 14px; fill:var(--stroke);" x="10" y="19.5" text-anchor="start" font-family="&quot;Arial&quot;" font-size="14px" stroke="none" id="peert" class="flowchartt" transform="matrix(1,0,0,1,112.975,58.6)" stroke-width="1"><tspan dy="4.5">📱 Peer</tspan></text><path style="fill:var(--fill); stroke:var(--stroke);" d="M72.0999984741211,36.04999923706055L0,72.0999984741211L144.1999969482422,144.1999969482422L288.3999938964844,72.0999984741211L144.1999969482422,0L0,72.0999984741211" stroke-width="3" id="localcached" class="flowchart" transform="matrix(1,0,0,1,6,153.6)"/><text style="text-anchor: start; font-family: &quot;Arial&quot;; font-size: 14px; fill:var(--stroke);" x="77.0999984741211" y="72.0999984741211" text-anchor="start" font-family="&quot;Arial&quot;" font-size="14px" stroke="none" id="localcachedt" class="flowchartt" transform="matrix(1,0,0,1,6,153.6)" stroke-width="1"><tspan dy="5">Is keeper address cached</tspan></text><rect x="0" y="0" width="184.5833282470703" height="36" rx="0" ry="0" style="fill:var(--fill); stroke:var(--stroke);" stroke-width="3" class="flowchart" id="resolve_cid" transform="matrix(1,0,0,1,57.9083,407.9)"/><text style="text-anchor: start; font-family: &quot;Arial&quot;; font-size: 14px; fill:var(--stroke);" x="10" y="18" text-anchor="start" font-family="&quot;Arial&quot;" font-size="14px" stroke="none" id="resolve_cidt" class="flowchartt" transform="matrix(1,0,0,1,57.9083,407.9)" stroke-width="1"><tspan dy="5">Resolve CID for QmName</tspan></text><rect x="0" y="0" width="131.25" height="39" rx="20" ry="20" style="fill:var(--fill); stroke:var(--stroke);" stroke-width="3" class="flowchart" id="keeper" transform="matrix(1,0,0,1,84.575,552.5)"/><text style="text-anchor: start; font-family: &quot;Arial&quot;; font-size: 14px; fill:var(--stroke);" x="10" y="19.5" text-anchor="start" font-family="&quot;Arial&quot;" font-size="14px" stroke="none" id="keepert" class="flowchartt" transform="matrix(1,0,0,1,84.575,552.5)" stroke-width="1"><tspan dy="4.5">🖥 Name Keeper</tspan></text><path style="fill:var(--fill); stroke:var(--stroke);" d="M10,18L0,36L167.23332977294922,36L187.23332977294922,0L20,0L10,18" stroke-width="3" id="resolved_cid" class="flowchart" transform="matrix(1,0,0,1,56.5833,701.6)"/><text style="text-anchor: start; font-family: &quot;Arial&quot;; font-size: 14px; fill:var(--stroke);" x="30" y="18" text-anchor="start" font-family="&quot;Arial&quot;" font-size="14px" stroke="none" id="resolved_cidt" class="flowchartt" transform="matrix(1,0,0,1,56.5833,701.6)" stroke-width="1"><tspan dy="5">QmName is QmV17</tspan></text><rect x="0" y="0" width="183.0500030517578" height="36" rx="0" ry="0" style="fill:var(--fill); stroke:var(--stroke);" stroke-width="3" class="flowchart" id="resolve_keeper" transform="matrix(1,0,0,1,403.075,207.7)"/><text style="text-anchor: start; font-family: &quot;Arial&quot;; font-size: 14px; fill:var(--stroke);" x="10" y="18" text-anchor="start" font-family="&quot;Arial&quot;" font-size="14px" stroke="none" id="resolve_keepert" class="flowchartt" transform="matrix(1,0,0,1,403.075,207.7)" stroke-width="1"><tspan dy="5">Resolve QmName keeper</tspan></text><rect x="0" y="0" width="128.13333129882812" height="39" rx="20" ry="20" style="fill:var(--fill); stroke:var(--stroke);" stroke-width="3" class="flowchart" id="router" transform="matrix(1,0,0,1,722.2583,206.2)"/><text style="text-anchor: start; font-family: &quot;Arial&quot;; font-size: 14px; fill:var(--stroke);" x="10" y="19.5" text-anchor="start" font-family="&quot;Arial&quot;" font-size="14px" stroke="none" id="routert" class="flowchartt" transform="matrix(1,0,0,1,722.2583,206.2)" stroke-width="1"><tspan dy="4.5">🖥 Router Node.</tspan></text><path style="fill:var(--fill); stroke:var(--stroke);" d="M51.09375,25.546875L0,51.09375L102.1875,102.1875L204.375,51.09375L102.1875,0L0,51.09375" stroke-width="3" id="routercached" class="flowchart" transform="matrix(1,0,0,1,948.4042,174.6062)"/><text style="text-anchor: start; font-family: &quot;Arial&quot;; font-size: 14px; fill:var(--stroke);" x="56.09375" y="51.09375" text-anchor="start" font-family="&quot;Arial&quot;" font-size="14px" stroke="none" id="routercachedt" class="flowchartt" transform="matrix(1,0,0,1,948.4042,174.6062)" stroke-width="1"><tspan dy="5">Check the cache</tspan></text><rect x="0" y="0" width="60.11666488647461" height="36" rx="0" ry="0" style="fill:var(--fill); stroke:var(--stroke);" stroke-width="3" class="flowchart" id="query" transform="matrix(1,0,0,1,1322.9208,207.7)"/><text style="text-anchor: start; font-family: &quot;Arial&quot;; font-size: 14px; fill:var(--stroke);" x="10" y="18" text-anchor="start" font-family="&quot;Arial&quot;" font-size="14px" stroke="none" id="queryt" class="flowchartt" transform="matrix(1,0,0,1,1322.9208,207.7)" stroke-width="1"><tspan dy="5">Query</tspan></text><rect x="0" y="0" width="92.78333282470703" height="36" rx="0" ry="0" style="fill:var(--fill); stroke:var(--stroke);" stroke-width="3" class="flowchart" id="dht_query" transform="matrix(1,0,0,1,1306.5875,353.8)"/><text style="text-anchor: start; font-family: &quot;Arial&quot;; font-size: 14px; fill:var(--stroke);" x="10" y="18" text-anchor="start" font-family="&quot;Arial&quot;" font-size="14px" stroke="none" id="dht_queryt" class="flowchartt" transform="matrix(1,0,0,1,1306.5875,353.8)" stroke-width="1"><tspan dy="5">Query DHT</tspan></text><path style="fill:var(--fill); stroke:var(--stroke);" d="M10,18L0,36L178.14999389648438,36L198.14999389648438,0L20,0L10,18" stroke-width="3" id="cache_router" class="flowchart" transform="matrix(1,0,0,1,1253.9042,499.9)"/><text style="text-anchor: start; font-family: &quot;Arial&quot;; font-size: 14px; fill:var(--stroke);" x="30" y="18" text-anchor="start" font-family="&quot;Arial&quot;" font-size="14px" stroke="none" id="cache_routert" class="flowchartt" transform="matrix(1,0,0,1,1253.9042,499.9)" stroke-width="1"><tspan dy="5">Save Keeper Address</tspan></text><rect x="0" y="0" width="113.80000305175781" height="36" rx="0" ry="0" style="fill:var(--fill); stroke:var(--stroke);" stroke-width="3" class="flowchart" id="pubsub_query" transform="matrix(1,0,0,1,1526.3375,207.7)"/><text style="text-anchor: start; font-family: &quot;Arial&quot;; font-size: 14px; fill:var(--stroke);" x="10" y="18" text-anchor="start" font-family="&quot;Arial&quot;" font-size="14px" stroke="none" id="pubsub_queryt" class="flowchartt" transform="matrix(1,0,0,1,1526.3375,207.7)" stroke-width="1"><tspan dy="5">Query PubSub</tspan></text><path style="stroke:var(--stroke);" fill="none" d="M150.1999969482422,97.5999984741211C150.1999969482422,97.5999984741211,150.1999969482422,135.80076932907104,150.1999969482422,149.10015879175626" stroke-width="3" marker-end="url(#raphael-marker-endblock33-objctu6m)"/><path style="stroke:var(--stroke);" fill="none" d="M150.1999969482422,297.7999954223633C150.1999969482422,297.7999954223633,150.1999969482422,382.7079331372711,150.1999969482422,403.39595116448737" stroke-width="3" marker-end="url(#raphael-marker-endblock33-objx2zel)"/><text style="text-anchor: start; font-family: &quot;Arial&quot;; font-size: 14px; fill:var(--stroke);" x="155.1999969482422" y="307.7999954223633" text-anchor="start" font-family="&quot;Arial&quot;" font-size="14px" stroke="none" stroke-width="1"><tspan dy="5.000007629394531">yes</tspan></text><path style="stroke:var(--stroke);" fill="none" d="M294.3999938964844,225.6999969482422C294.3999938964844,225.6999969482422,378.0692446930061,225.6999969482422,398.57801612848164,225.6999969482422" stroke-width="3" marker-end="url(#raphael-marker-endblock33-objvestp)"/><text style="text-anchor: start; font-family: &quot;Arial&quot;; font-size: 14px; fill:var(--stroke);" x="299.3999938964844" y="215.6999969482422" text-anchor="start" font-family="&quot;Arial&quot;" font-size="14px" stroke="none" stroke-width="1"><tspan dy="5">no</tspan></text><path style="stroke:var(--stroke);" fill="none" d="M150.1999969482422,443.8999938964844C150.1999969482422,443.8999938964844,150.1999969482422,527.5115042859597,150.1999969482422,548.0061225552549" stroke-width="3" marker-end="url(#raphael-marker-endblock33-objdwfj4)"/><path style="stroke:var(--stroke);" fill="none" d="M150.1999969482422,591.4999923706055C150.1999969482422,591.4999923706055,150.1999969482422,676.4079300855133,150.1999969482422,697.0959481127296" stroke-width="3" marker-end="url(#raphael-marker-endblock33-objq28y3)"/><path style="stroke:var(--stroke);" fill="none" d="M586.1249923706055,225.6999969482422C586.1249923706055,225.6999969482422,694.226140155115,225.6999969482422,717.7676987058431,225.6999969482422" stroke-width="3" marker-end="url(#raphael-marker-endblock33-objmmx4k)"/><path style="stroke:var(--stroke);" fill="none" d="M850.3916549682617,225.6999969482422C850.3916549682617,225.6999969482422,924.6806075360037,225.6999969482422,943.9057759251166,225.6999969482422" stroke-width="3" marker-end="url(#raphael-marker-endblock33-objipaxj)"/><path style="stroke:var(--stroke);" fill="none" d="M1050.591651916504,276.7937469482422C1050.591651916504,276.7937469482422,1050.591651916504,372.8999938964844,1050.591651916504,372.8999938964844C1050.591651916504,372.8999938964844,150.1999969482422,372.8999938964844,150.1999969482422,372.8999938964844C150.1999969482422,372.8999938964844,150.1999969482422,393.94306564331055,150.1999969482422,403.3960080295801" stroke-width="3" marker-end="url(#raphael-marker-endblock33-objyr3pz)"/><text style="text-anchor: start; font-family: &quot;Arial&quot;; font-size: 14px; fill:var(--stroke);" x="1055.591651916504" y="286.7937469482422" text-anchor="start" font-family="&quot;Arial&quot;" font-size="14px" stroke="none" stroke-width="1"><tspan dy="4.9999847412109375">yes</tspan></text><path style="stroke:var(--stroke);" fill="none" d="M1152.779151916504,225.6999969482422C1152.779151916504,225.6999969482422,1291.4625884893835,225.6999969482422,1318.4137641514958,225.6999969482422" stroke-width="3" marker-end="url(#raphael-marker-endblock33-objiib08)"/><text style="text-anchor: start; font-family: &quot;Arial&quot;; font-size: 14px; fill:var(--stroke);" x="1157.779151916504" y="215.6999969482422" text-anchor="start" font-family="&quot;Arial&quot;" font-size="14px" stroke="none" stroke-width="1"><tspan dy="5">no</tspan></text><path style="stroke:var(--stroke);" fill="none" d="M1352.979148864746,243.6999969482422C1352.979148864746,243.6999969482422,1352.979148864746,328.60793466315,1352.979148864746,349.29595269036633" stroke-width="3" marker-end="url(#raphael-marker-endblock33-objdpfcw)"/><path style="stroke:var(--stroke);" fill="none" d="M1383.0374813079834,225.6999969482422C1383.0374813079834,225.6999969482422,1497.5164579121051,225.6999969482422,1521.832060852922,225.6999969482422" stroke-width="3" marker-end="url(#raphael-marker-endblock33-objfwwzg)"/><path style="stroke:var(--stroke);" fill="none" d="M1352.979148864746,389.7999954223633C1352.979148864746,389.7999954223633,1352.979148864746,474.7079331372711,1352.979148864746,495.39595116448737" stroke-width="3" marker-end="url(#raphael-marker-endblock33-objrfl9b)"/><path style="stroke:var(--stroke);" fill="none" d="M1263.904151916504,517.8999938964844C1263.904151916504,517.8999938964844,707.052074432373,517.8999938964844,707.052074432373,517.8999938964844C707.052074432373,517.8999938964844,707.052074432373,378.8999938964844,707.052074432373,378.8999938964844C707.052074432373,378.8999938964844,719.052074432373,372.8999938964844,707.052074432373,366.8999938964844C707.052074432373,366.8999938964844,707.052074432373,362.8999938964844,707.052074432373,362.8999938964844C707.052074432373,362.8999938964844,150.1999969482422,362.8999938964844,150.1999969482422,362.8999938964844C150.1999969482422,362.8999938964844,150.1999969482422,392.00313115119934,150.1999969482422,403.3999651737977" stroke-width="3" marker-end="url(#raphael-marker-endblock33-obj96rr9)"/><path style="stroke:var(--stroke);" fill="none" d="M1583.2374782562256,243.6999969482422C1583.2374782562256,243.6999969482422,1583.2374782562256,464.8999938964844,1583.2374782562256,464.8999938964844C1583.2374782562256,464.8999938964844,1352.979148864746,464.8999938964844,1352.979148864746,464.8999938964844C1352.979148864746,464.8999938964844,1352.979148864746,485.94306564331055,1352.979148864746,495.3960080295801" stroke-width="3" marker-end="url(#raphael-marker-endblock33-objvbx2y)"/></svg>
